<svg xmlns="http://www.w3.org/2000/svg" viewBox="0 0 141.39 123.08"><defs><style>.cls-1{fill:#1d1d1b;}</style></defs><g id="Layer_2" data-name="Layer 2"><g id="Layer_1-2" data-name="Layer 1"><path class="cls-1" d="M124.84,10.36a3.06,3.06,0,0,1-.28,1.4,9.17,9.17,0,0,1-.9,1.39l-1,1.46a2.18,2.18,0,0,0-.42,1.19,2,2,0,0,1-.1.49c-.07.23-.15.58-.24,1-.24.84-.45,1.52-.63,2.06a9.36,9.36,0,0,0-.35,1.15,30.36,30.36,0,0,0-1,4.73,41.74,41.74,0,0,0-.28,5.09q0,5.16-.42,10.45c-.09,1.76-.24,3.61-.45,5.54s-.43,4-.67,6.09l-.66,6.13q-.31,2.93-.66,5.65-.49,4.88-.73,10.13t-.24,11q0,3.83.13,9.78t.28,13.76a21.47,21.47,0,0,0,2.58,2.09,18,18,0,0,1,2.82,2.13,3.15,3.15,0,0,1,.87,2.33c0,1.77-.93,3.48-2.78,5.16a8.54,8.54,0,0,1-5.51,2.5q-7,0-9.4-9.47a78.58,78.58,0,0,1-2.44-19.44,47.17,47.17,0,0,1,.42-6.27q.42-3.14.76-6.34.21-2.22.67-6.44t1.15-10.49q.69-6.27,1-9.58c.23-2.2.37-3.49.42-3.86s.1-.86.17-1.6.18-1.72.32-2.93q.48-3.61.69-6.27c.14-1.76.21-3.16.21-4.18,0-.32.08-.63.11-.91s0-.64,0-1.11a5,5,0,0,0-.7-1.81l-2.78,3.76L101.3,41c-2.75,3.62-5,6.62-6.69,9Q93.28,51.76,92,53.49c-.85,1.16-1.73,2.32-2.61,3.48l-3,4c-1.14,1.51-2.4,3.24-3.8,5.19q-4.51,6.27-9,12.75c-.14.23-.37.58-.7,1l-1.25,1.81c-1,1.53-1.61,2.37-1.74,2.51-3.26,4.27-6.25,6.81-9,7.59q-6.69-2-9.13-6.13-.63-1.11-1.08-1.95c-.3-.55-.59-1.08-.87-1.57L49,80.76l-.91-1.57c-.93-1.62-1.77-3.11-2.51-4.45s-1.41-2.56-2-3.63q-1.74-3.19-3.41-6.86t-3.07-7.63c-.55-1.76-1-3.21-1.39-4.35s-.65-2-.84-2.47-.41-1.3-.69-2.23-.61-2-1-3.35-.78-2.62-1.22-4-.89-2.72-1.36-4.11c-.93-2.93-1.44-4.5-1.53-4.74-.32,1.3-.78,3-1.36,5s-1.18,4.12-1.81,6.37-1.24,4.52-1.85,6.8-1.11,4.32-1.53,6.13-.89,3.61-1.29,5.26-.78,3.21-1.15,4.7q-1.18,4.32-3.55,13.58A45.67,45.67,0,0,0,15,90.76a31.65,31.65,0,0,0,.21,3.17c.14,1.32.37,2.94.69,4.84s.56,3.53.7,5,.21,2.78.21,3.9a8.64,8.64,0,0,1-1.88,4.53q-1.89,2.64-3.69,2.64a16.65,16.65,0,0,1-1.88-.14,19.3,19.3,0,0,0-2-.13q-3.9,0-5.64-4.67A27,27,0,0,1,0,100.3a18,18,0,0,1,.7-4.11c.23-.92.51-2,.83-3.38s.7-2.79,1.12-4.42.81-2.9,1-3.83.37-1.49.42-1.67Q5.64,77,6.9,72.26c.83-3.13,1.58-5.91,2.23-8.32s1.32-4.94,2-7.56,1.44-5.4,2.23-8.33c.92-3.34,1.73-6.16,2.4-8.46S17,35,17.42,32.8c.37-2.56.65-4.28.83-5.16a26.64,26.64,0,0,1,1-3.55c.42-1.21.88-2.42,1.39-3.62q1.53-3.76,3.9-3.77a27.92,27.92,0,0,1,8.22,1,8.81,8.81,0,0,1,5,4.53,24.9,24.9,0,0,1,1.67,3.24,27,27,0,0,1,1.19,3.38c.32,1.11.67,2.4,1,3.86s.74,3.13,1.12,5a15.09,15.09,0,0,0,.83,2.86c.37.93.77,2,1.19,3.13A134.77,134.77,0,0,0,60.89,76.2a23.81,23.81,0,0,1,2.23-1.67c.6-.47,1.12-.89,1.57-1.26a7,7,0,0,0,1.08-1.11c.64-.79,1.32-1.69,2-2.68a36.23,36.23,0,0,0,2-3.31q2.09-3.63,3.93-6.76a32.86,32.86,0,0,1,4.15-5.64q1.11-1.19,2.61-3c1-1.23,2.15-2.69,3.45-4.36S86.4,43.25,87.4,42s1.82-2.27,2.47-3.06,1.52-1.74,2.19-2.58S93.38,34.7,94,33.91s1.29-1.69,2.06-2.72l2.54-3.41,2-2.44c.46-.56.87-1.05,1.22-1.5s.64-.82.87-1.15q1.25-1.74,2.75-4t3.24-5.15c1.21-2,2.28-3.64,3.2-5.05S113.6,5.93,114.25,5a1.63,1.63,0,0,1,1.47-.63,6.31,6.31,0,0,1,2.57.56,18.05,18.05,0,0,1,3.1,1.57,14.54,14.54,0,0,1,2.55,2A2.33,2.33,0,0,1,124.84,10.36Z"/><path class="cls-1" d="M134.43,0V.9h-1.74V5.44h-1.08V.9h-1.74V0Zm5.88,5.44-.2-3.2c0-.42,0-.94,0-1.52H140c-.14.48-.3,1.12-.46,1.62l-1,3h-1.12l-1-3.1c-.1-.42-.26-1.06-.38-1.54H136c0,.5,0,1,0,1.52l-.2,3.2h-1l.4-5.44h1.62l.94,2.66c.12.42.22.82.36,1.38h0c.14-.5.26-1,.38-1.36L139.41,0H141l.42,5.44Z"/></g></g></svg>