<svg xmlns="http://www.w3.org/2000/svg" viewBox="0 0 269.35 269.08"><defs><style>.cls-1{fill:#f6efe7;}.cls-2{fill:#343434;}.cls-3{fill:#6c4b2f;}.cls-4{fill:#fefefe;}.cls-5{fill:#6c4c31;}.cls-6{fill:#6d4a2a;}.cls-7{fill:#6a4f37;}.cls-8{fill:#6f4929;}.cls-9{fill:#70543d;}.cls-10{fill:#f5efe6;}.cls-11{fill:#f4ece3;}.cls-12{fill:#f8efe4;}.cls-13{fill:#f4ebdf;}.cls-14{fill:#efe5db;}.cls-15{fill:#363535;}.cls-16{fill:#7f5d3f;}.cls-17{fill:#eee3d7;}.cls-18{fill:#e4d9cc;}.cls-19{fill:#faf3e8;}.cls-20{fill:#eddccd;}.cls-21{fill:#e7ddd1;}.cls-22{fill:#ede4d5;}.cls-23{fill:#776554;}.cls-24{fill:#f3ede4;}.cls-25{fill:#fdf8f0;}.cls-26{fill:#fffdf4;}.cls-27{fill:#fffdf5;}.cls-28{fill:#f4e9dc;}.cls-29{fill:#f4e0ce;}.cls-30{fill:#efe4d9;}.cls-31{fill:#f8e9d9;}.cls-32{fill:#634c39;}.cls-33{fill:#614d3c;}.cls-34{fill:#fff7eb;}.cls-35{fill:#6b5745;}.cls-36{fill:#634c3b;}.cls-37{fill:#efe4db;}.cls-38{fill:#917b69;}.cls-39{font-size:17.51px;fill:#1d1d1b;font-family:SpecialElite-Regular, Special Elite;}</style></defs><g id="Layer_2" data-name="Layer 2"><g id="Layer_1-2" data-name="Layer 1"><circle class="cls-1" cx="134.12" cy="133.71" r="130.73"/><path class="cls-2" d="M269.35,134.1c-.29,19-3.6,36.79-11.15,53.65-1.26,2.84-1.19,4.47,2,5.52a16.77,16.77,0,0,1,4.6,2.47c1.41,1,4.62,1.14,3.87,3.23-.93,2.58-1.76,5.64-5.56,6.56-15.2,3.7-23.8,18.17-19.55,33.2,1.27,4.5-1.84,6.7-3.34,9.76-.59,1.19-1.78-.2-2.6-.59q-7.68-3.65-15.3-7.42a4.6,4.6,0,0,0-5.52.55c-28.64,21.84-61,30.91-96.76,27.27a129.31,129.31,0,0,1-66.46-26.48c-2.76-2.11-4.84-2.4-7.78-.83-4.48,2.4-9.23,4.3-13.68,6.76-2.09,1.16-3,1.19-4.32-1-1.81-3.11-2.63-5.89-1.72-9.71a26,26,0,0,0-19-31.26c-4-.95-4.73-3.79-6.42-6.32a1.17,1.17,0,0,1,.41-1.84c.5-.29,1-.56,1.5-.88,3.1-2.09,8.35-2.57,9.21-5.8.76-2.83-2.19-6.63-3.44-10C-20.5,102.58,28.34,17.19,110.55,2.2c74.11-13.51,145.28,36.65,157,110.74A148.42,148.42,0,0,1,269.35,134.1Z"/><path class="cls-1" d="M242.12,185.13c-22.19-9.14-45.35-14.45-69.1-17.28a319.45,319.45,0,0,0-88.8,1.7c-19.56,3.14-38.66,8-57,15.57-2.16-.54-2.83-2.4-3.52-4.15-13.22-33.33-13-66.43,2.89-98.75C45,44.75,75.37,22.38,116.41,15.77c35.23-5.66,67.18,3.43,94.85,26.16,23.39,19.22,37.39,44.08,42.23,73.91a118.15,118.15,0,0,1-8,65.55C244.81,183,244.09,184.65,242.12,185.13Z"/><path class="cls-1" d="M23.31,186.85c-2.78,1.52-4.36,1-5.76-2.2C-14.91,110,32.36,22.81,112.7,9.25,181.52-2.36,246.15,41.87,259.57,110.13c5,25.36,2.28,50.13-7.62,74.11-1.34,3.25-2.77,4.39-5.92,2.61-1.63-1.53-.93-3.22-.22-4.82,8.19-18.44,10.86-37.87,9.23-57.75A117.25,117.25,0,0,0,225.9,55.36C210.46,37.6,191.57,25.14,169,18.75c-32.67-9.22-64.11-6-93.89,10.7A119.87,119.87,0,0,0,14.06,130c-.49,18.09,2.34,35.43,9.47,52.06C24.23,183.63,24.94,185.32,23.31,186.85Z"/><path class="cls-1" d="M69.14,232.7c11.9-2.62,23.79-5.22,35.94-6.54A261,261,0,0,1,196.81,232c1.12.28,2.27.46,3.4.69,1.37,2.93-1.32,3.51-2.83,4.41A118.14,118.14,0,0,1,162,251.72q-46,10.13-87-12.76a32.74,32.74,0,0,1-4.44-2.78C69.41,235.34,67.84,234.52,69.14,232.7Z"/><path class="cls-3" d="M23.31,186.85c.89-1.75-.37-3.1-1-4.5A122.07,122.07,0,0,1,98.32,18c70-21.95,143.77,22.84,156.43,95a121.05,121.05,0,0,1-7.93,69.72c-.55,1.29-1.63,2.52-.79,4.1l-3.91-1.73c5.95-10.56,8.84-22.13,10.51-33.95A119,119,0,0,0,187.17,27.62C115.7-7.64,30.44,36.22,17.23,115a118.08,118.08,0,0,0,8.41,67.52,20.08,20.08,0,0,0,1.57,2.57Z"/><path class="cls-1" d="M204.65,234.34l6,1.76c-39.3,31.62-104.6,36.38-151.91.35a17.47,17.47,0,0,1,5.95-2.11,27,27,0,0,1,7.42,3.52,119,119,0,0,0,61.47,17.27,119.43,119.43,0,0,0,64.77-18A24.25,24.25,0,0,1,204.65,234.34Z"/><path class="cls-4" d="M83.28,179c4.89,0,8.25,2.44,9.24,7.5q2.39,12.2,4.18,24.49c.82,5.54-2.21,9.29-8,10.56-5.48,1.2-10-.9-11.2-6.25a269.27,269.27,0,0,1-4.59-26.6C72.23,182.85,76.8,179,83.28,179Z"/><path class="cls-4" d="M52.26,230.82A8.15,8.15,0,0,1,44,225c-2.87-8.06-5.55-16.2-8-24.4-1.07-3.65-.49-7.35,3-9.74,3.29-2.22,6.94-3.17,10.72-1.43,4,1.86,5.12,5.86,5.95,9.65.49,2.23-2.23,1.66-3.47,2.38s-2.15.44-2.56-1.11a27.36,27.36,0,0,0-1.34-3.67,2.92,2.92,0,0,0-4-1.72,2.79,2.79,0,0,0-2.07,3.73c2.47,7.89,5,15.77,7.63,23.61.59,1.78,2,2.9,4.11,2.13s2.41-2.34,1.94-4.24a20.82,20.82,0,0,0-1-3.32c-.85-2-1-3.34,1.65-4.15,2.47-.77,3.56-.37,4.42,2.18C64.28,224.4,60.92,230.66,52.26,230.82Z"/><path class="cls-4" d="M226.22,195.9c-.9-.1-1.26.42-1.49,1.2-.3,1-.69,1.91-1,2.86-2.11,5.83-2.14,5.93,3.5,8,2,.73,2.92,1.39,2,3.66-.83,2-1.56,3.46-4,2a11,11,0,0,0-2.07-.7,5.07,5.07,0,0,0-1.63-.55c-5.3.3-3,5.54-5.08,8-.81,1-2.16,3.18.75,4.07,1.8.55,3.53,1.33,5.34,1.85,2.14.63,3.56,1.16,2.46,4.09s-2.61,2.3-4.68,1.5c-3.51-1.36-7.07-2.63-10.67-3.77-2.14-.68-2.57-1.61-1.75-3.82,4.19-11.28,8.23-22.63,12.21-34,.74-2.12,1.45-2.73,3.71-1.77a100,100,0,0,0,11.88,4.26c2.78.8,1.81,2.33,1.3,3.94s-1.18,2.79-3.36,1.76A72.47,72.47,0,0,0,226.22,195.9Z"/><path class="cls-4" d="M175.67,218c2.16-12.76,4.26-24.94,6.25-37.13.32-1.93,1.42-1.9,2.8-1.67,4.3.7,8.58,1.53,12.91,2.09,2.84.37,1.94,2.15,1.87,3.81-.09,1.91-.85,2.63-2.76,2.14-1-.24-2-.22-3-.4-5.74-1-5.74-1-6.76,4.51-1,5.33-1,5.39,4.62,6.24,2.12.33,3.39.62,2.91,3.47-.44,2.61-1.47,3.11-3.69,2.59-1-.23-2-.36-3-.62-2.2-.59-3.14.13-3.34,2.5-.25,3-2.13,6.51-1.13,8.88,1.16,2.77,5.43,1.73,8.33,2.32,2.37.48,2.29,1.54,1.88,3.35-.35,1.57-.14,3.29-2.69,2.78-4.27-.86-8.56-1.71-12.87-2.27C175.74,220.27,175.29,219.29,175.67,218Z"/><path class="cls-5" d="M204.65,234.34C184.11,249,161.15,256.21,136,256.47c-26.11.26-49.95-6.94-71.29-22.13l4.45-1.64c-.44,1.88,1.26,2.1,2.25,2.68q63.27,37,126.57,0c1-.58,2.7-.79,2.25-2.67Z"/><path class="cls-4" d="M122.49,174.72c1.55.91,4.72-2,5.14,2.32.25,2.54-.32,3.61-3.12,3.82-8.05.59-7.88.7-7,8.73.33,3,1.46,3.46,4.15,3.07,1.55-.22,4-1.68,4.77,1.17.66,2.48,1,5.09-3.11,4.67-3.75-.38-5.65.76-4.67,5.14.74,3.37.41,7,.94,10.4.48,3.11-1.3,3.24-3.48,3.48s-3.16-.18-3.32-2.63c-.76-11.6-1.57-23.2-2.66-34.78-.35-3.7.81-4.81,4.36-4.65A58.35,58.35,0,0,0,122.49,174.72Z"/><path class="cls-4" d="M158.34,181.86c-1.2.46-3.77-1.56-4.58.78a18,18,0,0,0-.48,9.88c.33,1.36,2.62.61,4,.75,2.08.2,3.88,0,3.79,3.26s-1.78,3.19-3.93,2.79c-3.79-.72-5.49.44-5.26,4.6.19,3.16-.59,6.37-.61,9.57,0,2.81-.9,3.7-3.87,3.54s-3.17-1.4-3-3.81c1-11.46,1.87-22.92,2.59-34.4.2-3.21,1.17-4.36,4.5-3.73a77.13,77.13,0,0,0,9.14.73c2.18.16,4.25-.08,4,3.46s-2.15,2.68-4.1,2.58C160,181.84,159.42,181.86,158.34,181.86Z"/><path class="cls-6" d="M140,55c3.2-.5,5.36,1.22,7.51,2.57,11.94,7.49,18.41,18.84,21.57,32.13,4.58,19.28,2.11,37.54-9.56,54a35.91,35.91,0,0,1-19.09,13.9c-3.2,1-5.24.6-7.43-2.2-10.51-13.44-11.31-24.49-2.18-38.92,3.73-5.9,8-11.45,11.7-17.38C152,83.88,151.22,69.63,140,55Z"/><path class="cls-6" d="M128,157.84a32.34,32.34,0,0,1-11.79-7.16C101.89,137.15,97.25,120,98.32,101.05,99,88.43,103,76.81,111.18,66.92A36,36,0,0,1,130.24,54.5c1.95-.51,3.06-.3,4.42,1.38,12,14.88,12.68,27.24,2.14,43.12-3.7,5.58-7.68,11-11.24,16.64-7.86,12.53-8.11,25.16.06,37.73C126.33,154.45,126.83,155.66,128,157.84Z"/><path class="cls-7" d="M61.71,142.71c-4.08,0-8.16-.08-12.24,0-2.39.06-3.26-.76-3.36-3.27-.46-11.61-.54-11.61,11.24-11.6,5.39,0,10.78.07,16.17,0,2.58,0,3.5.87,3.58,3.55.31,11.34.4,11.34-11,11.32Z"/><path class="cls-8" d="M192.5,134.54l.06-5.25c.84-.52,1.61-1.29,2.68-1.27,8.89.19,17.8-.58,26.68.41,2.25,4.09,1.39,8.32.59,12.54-.25,1.34-1.19,1.77-2.54,1.73-8.88-.25-17.77.48-26.63-.39C192.18,139.81,193.59,137,192.5,134.54Z"/><path class="cls-9" d="M221.92,128.43c-7.66,0-15.32.07-23,0a20.47,20.47,0,0,0-6.38.85A1.33,1.33,0,0,1,194,128C203.29,128.07,212.62,127.16,221.92,128.43Z"/><path class="cls-10" d="M77,33.93c.31,3,2.62,5,3.66,7.6.37.92,1.84,1.95.24,2.85-1.3.73-1.69-.74-2.12-1.51-1.32-2.36-2.5-4.8-3.74-7.21Z"/><path class="cls-11" d="M204.89,52.25c-.41-1.5-.87-3-1.19-4.51-.22-1,0-2.25,1.24-2.3,1.56,0,1.2,1,.81,2.06s.08,2,1.47,1.87Z"/><path class="cls-12" d="M54.12,62.54a9.47,9.47,0,0,0-4.1.92,1.94,1.94,0,0,1-2.59-.75,1.32,1.32,0,0,1-.08-1.14c.69-1.06,1.45,0,2.17,0A7,7,0,0,0,51.46,61Z"/><path class="cls-13" d="M54.92,67c-1.41,1.89-2.88-.17-4.32.08l-.89-.81C51.68,64.79,53.56,64.05,54.92,67Z"/><path class="cls-9" d="M192.5,134.54c1.65,2.44.44,5.19.84,7.77C191.26,139.91,192.61,137.15,192.5,134.54Z"/><path class="cls-14" d="M232,85.52c.08-1.53-.61-3.16.62-4.52C232.67,82.54,233.29,84.16,232,85.52Z"/><path class="cls-2" d="M134.67,235.17h27.52a14.81,14.81,0,0,1,3.47.17,3,3,0,0,1,2.38,3.2,2.78,2.78,0,0,1-1.75,2.77c-1.47.59-3.42.56-3.85-.89-1-3.26-3.31-2.55-5.5-2.55-15.14,0-30.28,0-45.42,0-1.5,0-3.44-1-4.15,1.8-.51,2-2.46,2.32-4.32,1.6a2.77,2.77,0,0,1-1.72-3.2c.25-2.12,1.65-2.92,3.64-2.93h29.7Z"/><path class="cls-15" d="M90.24,211.85a3.37,3.37,0,0,1-2.86,3.86c-2.1.42-3.41-.79-3.76-2.74q-2.16-12-4.1-24.08c-.31-2,.46-3.43,2.68-3.76A3,3,0,0,1,86,187.78C87.49,195.79,88.85,203.82,90.24,211.85Z"/><path class="cls-16" d="M113,110.31l-.54.77a6.87,6.87,0,0,1-.81-1.23c0-.08.5-.57.81-.6S113.28,109.45,113,110.31Z"/><path class="cls-17" d="M56.71,135.65c-1.67-1.3-1.58-3-.92-4.73.48-1.22,1.74-.72,2.7-.8,1.82-.15,2.88.67,2.54,2.54-.47,2.66-2.13-.63-3.15.76,1.77,1.68,4.81,3.31,2.9,6.32-1,1.62-3.23,1.5-4.9.06-.94-1.4,0-1.86,1.11-2.24C57.57,136.82,57.2,136.23,56.71,135.65Z"/><path class="cls-18" d="M68.29,130.8c-3.21,2.22-1.82,5.25-2.11,7.92-.09.83.12,1.86-1.15,1.87s-1-1.06-1.16-1.86c-.51-2.46,1.35-5.39-1.64-7.42-.52-.36.48-1.18,1.24-1.17C64.89,130.14,66.35,129.78,68.29,130.8Z"/><path class="cls-19" d="M52.07,140.44c-1.25,0-3,.79-3.11-.71a25.88,25.88,0,0,1,.27-9c.36-1.31,3-.41,4.87-.25-.37,1.79-8.06,1.79-1.1,4.57-.17.36-.28,1-.51,1C47.86,137,52.35,138.76,52.07,140.44Z"/><path class="cls-20" d="M69.21,131.06c4.4-2,4.94-1.63,5.72,3.53-.63,1.76.2,3.67-.57,5.42-1.76,1-3.49,1.25-5.1-.29.72-2.24-.48-4.75.76-7,1.81.61,1.59,2,1.69,3.19.91-.64.41-1.57.53-2.35C72.17,131.6,69.51,132.74,69.21,131.06Z"/><path class="cls-21" d="M71.64,138.91c-1.66-1.43-.36-3.59-1.23-5.43-1.24,2.08.31,4.44-1.15,6.24q0-4.33-.05-8.66c1.37.93,5.1-1.28,4,3C71.14,135.18,73.26,137.64,71.64,138.91Z"/><path class="cls-22" d="M57.61,138.91c-1-.48-1.78-.63-1.73.89-.65-1.26-1.44-2.55.8-3.05Q58.9,137.08,57.61,138.91Z"/><path class="cls-23" d="M57.61,138.91l-.93-2.16,0-1.1c1.14.46,2.46.79,2.43,2.36C59.12,138.94,58.31,138.91,57.61,138.91Z"/><path class="cls-21" d="M74.36,140c.1-1.82-.66-3.73.57-5.42C74.94,136.42,75.73,138.33,74.36,140Z"/><path class="cls-24" d="M212.44,139.73c-1.73,1.15-3.47,1.59-5.22,0l.26-.4c.44-.44,1-.77,1.21-1.4-2.15-1.95-3.05-4.17-1.52-6.91,1.81-1.5,3.62-1.24,5.43,0C214.3,134,214.43,136.86,212.44,139.73Z"/><path class="cls-25" d="M200.24,131c2-1.19,4-1.95,5.47.84,1,2.65,1.59,5.3-.11,7.92l-.29-.11c-.83.87-1.42.29-2-.33-.41-1.57-2.11-2-2.89-3.29a.75.75,0,0,0-.2-.67A6.46,6.46,0,0,1,200.24,131Z"/><path class="cls-26" d="M218.71,139.78c-1.5,2.7-3,2-4.52,0-1-3.22-1.43-6.42.35-9.55,1.39.29,3.06-.89,4.19.78a1.89,1.89,0,0,1-.77,1.25c-.27.19-.55.37-.82.54a3.35,3.35,0,0,0-.67.74,6.56,6.56,0,0,0,0,3.7,3,3,0,0,0,.67.71c.28.17.54.37.81.57A1.87,1.87,0,0,1,218.71,139.78Z"/><path class="cls-9" d="M205.6,139.8q.06-4,.11-7.92l1.46-.84c.5,2.1-1.31,5.29,3,5.65.8.06,1.23,2.28-1.06,2.18a1.45,1.45,0,0,0-1.48,1l-.4-.1Z"/><path class="cls-9" d="M214.54,130.24l-.35,9.55-1.75-.06.16-8.7Z"/><path class="cls-27" d="M218.71,139.78l-.9-.93a5.59,5.59,0,0,1,0-6.9l.91-.93A10.94,10.94,0,0,1,218.71,139.78Z"/><path class="cls-28" d="M203.76,138.79a1.51,1.51,0,0,0,1.55.9c-.85,1.25-2.06,2.33-3.5,1.69-1.64-.72-1.66-2.5-1.45-4.13C202.34,135.89,202.75,138,203.76,138.79Z"/><path class="cls-29" d="M196.45,131.2c.67-.83,1.75-1.76,2,0a35.18,35.18,0,0,1,0,8.64c-.24,2-1.47,1.69-2.38.15.2-.31.4-.63.58-1a34.61,34.61,0,0,0,.17-6.75A4.83,4.83,0,0,0,196.45,131.2Z"/><path class="cls-9" d="M196.7,139.76a2.61,2.61,0,0,0-.67.21c0-2.93-.66-5.89.42-8.77a.49.49,0,0,0,.47-.18C197.32,134,197.72,136.87,196.7,139.76Z"/><path class="cls-9" d="M203.76,138.79c-1.77.88-1.82-2-3.4-1.54l.06-1.18C202,136.41,204.42,135.7,203.76,138.79Z"/><path class="cls-9" d="M200.24,131c0,1.45,0,2.91,0,4.36A3.16,3.16,0,0,1,200.24,131Z"/><path class="cls-30" d="M40.42,82.15c.88.52,2.26.58,2.26,2.07,0,.58-.44,1.21-1,1-1-.27-2.31-.49-2.52-1.82C39,82.73,39.5,82.14,40.42,82.15Z"/><path class="cls-1" d="M66.67,43.36c.88,0,5.79,5.92,5.49,6.78-.25.7-1.08,1.41-1.63.8a65.55,65.55,0,0,1-4.78-6.08C65.2,44.09,65.92,43.6,66.67,43.36Z"/><path class="cls-31" d="M90.15,36.11c-.27.46-.41,1-.67,1.09a.93.93,0,0,1-1.16-.92c0-.51-.34-1.28.5-1.25C89.25,35,89.65,35.69,90.15,36.11Z"/><path class="cls-32" d="M71.64,138.91c-.09-1.71-.22-3.43-.26-5.14,0-.65-.13-1.67.87-1.51.4.07.63,1.16.93,1.78C71.85,135.4,74.06,137.89,71.64,138.91Z"/><path class="cls-33" d="M209.74,132c.76,0,.87.6.9,1.17s0,1.2-.72,1.3c-.91.14-.76-.65-.79-1.13S209,132.19,209.74,132Z"/><path class="cls-34" d="M207.62,139.85c-.25-.84-.89-1.89.32-2.32.69-.25,1,.68,1.16,1.34Z"/><path class="cls-35" d="M203.78,133.21c0,.56,0,1.28-.7,1.34-1.07.1-1-.8-1-1.49,0-.52,0-1.26.86-1.15S203.72,132.64,203.78,133.21Z"/><path class="cls-36" d="M216.94,138.85l-.4.16-.42-.11a11.47,11.47,0,0,1,0-7H217A11.51,11.51,0,0,1,216.94,138.85Z"/><path class="cls-37" d="M216.1,131.92l0,7A6.34,6.34,0,0,1,216.1,131.92Z"/><path class="cls-38" d="M216.94,138.85c0-2.3,0-4.61,0-6.92l.87,0c0,2.3,0,4.6,0,6.9Z"/><path class="cls-26" d="M196.7,139.76c0-2.91-.39-5.84.22-8.74C198,134,198.31,136.89,196.7,139.76Z"/><text class="cls-39" transform="matrix(0.91, -0.41, 0.41, 0.91, 86.33, 42.05)">F</text><text class="cls-39" transform="translate(96.02 37.69) rotate(-18.52)">o</text><text class="cls-39" transform="translate(106.31 34.28) rotate(-12.56)">r</text><text class="cls-39" transform="matrix(0.99, -0.12, 0.12, 0.99, 116.85, 32)">t</text><text class="cls-39" transform="matrix(1, -0.02, 0.02, 1, 126.36, 30.82)">h</text><text class="cls-39" transform="translate(137.84 30.71) rotate(3.39)"> </text><text class="cls-39" transform="translate(143.64 30.95) rotate(8.19)">R</text><text class="cls-39" transform="translate(155.28 32.69) rotate(14.41)">o</text><text class="cls-39" transform="translate(165.79 35.43) rotate(20.31)">a</text><text class="cls-39" transform="translate(175.68 39.11) rotate(26.29)">d</text></g></g></svg>